<svg version="1.1" id="Layer_1" xmlns="http://www.w3.org/2000/svg" x="0" y="0" viewBox="0 0 512 512" xml:space="preserve"><style>.st1{fill:#4d3a4f}.st4{fill:#e7e7e7}.st5{fill:#644d68}</style><g><path d="M33.2 211.3L240 4.4c5.9-5.9 27.4-5.9 33.2 0l207 207-447-.1z" fill="#362939"/><path class="st1" d="M33.4 209.2l3.4 241.7 431.8 16.6 11.6-258z"/><path fill="#f2f2f2" d="M47.5 56.5h423.4v420H47.5z"/><path fill="#1abdd7" d="M82.1 109.5h94.4v94.4H82.1z"/><path class="st4" d="M197.9 111.1h238.7v15.8H197.9z"/><path class="st4" d="M197.9 144.2h238.7V160H197.9z"/><path class="st4" d="M197.9 177.3h238.7v15.8H197.9z"/><path class="st4" d="M82.1 236h354.5v15.8H82.1z"/><path class="st4" d="M82.1 277.5h354.5v15.8H82.1z"/><path class="st4" d="M82.1 319.1h354.5v15.8H82.1z"/><path class="st4" d="M82.1 360.6h354.5v15.8H82.1z"/><path class="st1" d="M273.3 416c-5.8 5.9-27.3 5.9-33.2 0l-26.7-26.7-180 118.9c2.3 2.3 5.4 3.9 9 3.9h428.8c3.5 0 6.7-1.5 8.9-3.9l-180-119-26.8 26.8z"/><path class="st5" d="M44.3 220.3l-11-11c-.7.8-1.3 1.7-1.8 2.5-1 1.8-1.6 3.8-1.6 6v281.7c0 3.3 1.3 6.3 3.5 8.6l180-118.9L44.3 220.3z"/><path class="st5" d="M482 211.9c-.5-.9-1.2-1.9-1.9-2.7l-11.4 11.4-168.6 168.6 180.1 118.9c2.2-2.2 3.5-5.3 3.5-8.6V217.9c-.1-2.3-.7-4.3-1.7-6z"/></g></svg>